<?xml version="1.0" encoding="UTF-8"?>
<svg id="Design" xmlns="http://www.w3.org/2000/svg" viewBox="0 0 566.93 283.46">
  <defs>
    <style>
      .cls-1 {
        fill: #fff;
        stroke-width: 0px;
      }
    </style>
  </defs>
  <path class="cls-1" d="m524.37,170.81c-1.78,10.16-5.09,19.09-9.68,26.76-4.39,7.33-9.95,13.48-16.51,18.43-13.46,10.15-31.02,15.19-50.98,15.19-21.83,0-41.25-6.98-55.14-21.08-6.83-6.93-12.29-15.56-16.05-25.79v-.03c-3.91-10.6-6.03-22.89-6.03-36.89,0-11.27,1.52-21.57,4.38-30.83,4.04-13.17,10.74-24.22,19.36-32.87,14.69-14.72,34.96-21.33,56.97-22.48,17.04-.9,39.09,7,49.74,16.04,4.14,18.9-14.4,31.41-23.9,36.28-.76-1.89-2.01-4.23-3.17-6.09-1.34-2.14-2.81-3.98-4.44-5.5-4.94-4.67-11.24-6.79-19.11-6.79-9.51,0-17.34,3.7-23.1,11.7-5.37,7.47-8.89,18.89-9.32,34.55-.03,1.1-.05,2.21-.05,3.36,0,.68.01,1.37.01,2.05l.04,1.67c.01.63.04,1.28.08,1.91.12,3.33.39,6.47.75,9.44,0,.04.01.06.01.1,1.41,11.17,4.44,19.57,8.51,25.46,5.76,8.29,13.43,11.88,22.81,11.88,7.35,0,13.49-2.23,18.41-6.73.61-.56,1.21-1.14,1.77-1.76t.03-.05c3.01-3.3,5.45-7.58,7.22-12.94.14-.4.27-.83.43-1.28.45-1.51.87-3.1,1.2-4.75.26-1.27,1.36-2.17,2.65-2.17h40.46c1.68,0,2.96,1.52,2.66,3.2Z"/>
  <path class="cls-1" d="m279.98,95.15c7.85,0,14.15,2.11,19.1,6.78,4.95,4.66,8.66,12.07,10.5,23,.22,1.31,1.34,2.26,2.66,2.27h39.91c1.59,0,2.84-1.37,2.69-2.95-2.99-35.91-30.64-63.04-73.98-63.04-22.04,0-42.28,7.75-56.97,22.47-14.69,14.72-23.74,36.37-23.74,63.7s8.2,48.63,22.08,62.72c13.88,14.09,33.29,21.07,55.13,21.07,19.96,0,37.52-5.04,50.98-15.19,13.47-10.15,22.72-25.4,26.19-45.21.3-1.66-.97-3.19-2.66-3.19h-40.46c-1.28,0-2.38.91-2.64,2.16-1.97,9.43-5.71,16.29-10.63,20.78-4.92,4.49-11.06,6.73-18.41,6.73-9.39,0-17.07-3.59-22.82-11.9-5.74-8.3-9.39-21.57-9.39-40.62,0-17.41,3.6-29.91,9.36-37.9,5.76-7.99,13.57-11.68,23.11-11.68Z"/>
  <path class="cls-1" d="m42.52,231.17l44.62-144.38,4.92-15.13c3.18-9.75,10.38-15.81,18.56-18.18.82-.26,1.68-.49,2.54-.67.92-.21,1.85-.34,2.79-.41.47-.04.95-.09,1.42-.11.47-.02.97-.04,1.44-.04s.97.02,1.44.04c.47.02.95.06,1.42.11.95.06,1.87.19,2.79.41.86.17,1.72.41,2.54.67,8.16,2.36,15.36,8.42,18.54,18.18l3.27,10.05,1.31,4.02.3.95,1.63,4.96,1.31,4.02,7.07,21.83c-8.66-10.36-20.78-7.05-23.2-6.4-9.89,2.65-27.35,27.39-27.35,27.39l-67.35,92.69Z"/>
  <path class="cls-1" d="m197.4,231.17l-5.69-7.46-36.57-47.95c-7-9.29-13.05-18.28-32.38-19.44-2.82-.17-16.49,3.89-17.87,4.17l4.21-5.52,5.74-7.52,8.92-11.69s10.28-12.84,19.23-13.99c12.49-1.61,19.61,3.87,24.51,18.72l5.33,15.08,24.58,75.61Z"/>
  <path class="cls-1" d="m484.13,150.89h-33.11l-11.8.09h-.05l-10.8-.09,3.79-2.2,14.07-8.13,20.43-11.8s40.63-20.16,41.8-43.78c4.06,5.15,8.45,11.23,10.74,17.07,11.81,30.16-12.63,48.92-35.08,48.83Z"/>
</svg>